<?xml version="1.0" encoding="utf-8"?>
<svg viewBox="86.915 106.274 244.649 127.73" width="244.649" height="127.73" xmlns="http://www.w3.org/2000/svg">
  <path fill="#000" d="M 98.717 165.274 L 98.717 118.472 L 86.915 118.472 L 86.915 107.354 L 130.309 107.354 L 130.309 118.472 L 118.563 118.472 L 118.563 165.274 L 98.717 165.274 Z" transform="matrix(1, 0, 0, 1, -7.105427357601002e-15, 0)"/>
  <path fill="#000" d="M 151.798 165.274 L 151.798 107.354 L 191.434 107.354 L 191.434 118.541 L 171.944 118.541 L 171.944 129.797 L 190.662 129.797 L 190.662 140.741 L 171.944 140.741 L 171.944 154.018 L 192.688 154.018 L 192.688 165.274 L 151.798 165.274 Z" transform="matrix(1, 0, 0, 1, -7.105427357601002e-15, 0)"/>
  <path fill="#000" d="M 234.787 165.274 C 227.546 165.274 221.751 163.951 217.382 161.304 C 213.047 158.654 210.889 155.021 210.889 150.393 L 210.889 123.701 C 210.889 117.939 212.826 113.593 216.729 110.664 C 220.665 107.737 226.817 106.274 235.206 106.274 C 242.509 106.274 248.395 107.448 252.851 109.797 C 257.335 112.147 259.585 115.512 259.585 119.902 L 259.585 129.902 L 239.858 129.902 L 239.858 121.329 C 239.858 119.656 239.5 118.507 238.784 117.878 C 238.098 117.254 236.905 116.939 235.206 116.939 C 233.449 116.939 232.241 117.305 231.568 118.019 C 230.931 118.743 230.616 119.794 230.616 121.189 L 230.616 150.254 C 230.616 151.786 230.989 152.902 231.751 153.6 C 232.538 154.293 233.688 154.644 235.206 154.644 C 238.306 154.644 239.858 153.18 239.858 150.254 L 239.858 139.799 L 259.765 139.799 L 259.765 150.744 C 259.765 160.429 251.434 165.274 234.787 165.274 Z" transform="matrix(1, 0, 0, 1, -7.105427357601002e-15, 0)"/>
  <path fill="#000" d="M 282.807 165.274 L 282.807 107.354 L 302.475 107.354 L 302.475 128.055 L 311.837 128.055 L 311.837 107.354 L 331.564 107.354 L 331.564 165.274 L 311.837 165.274 L 311.837 138.964 L 302.475 138.964 L 302.475 165.274 L 282.807 165.274 Z" transform="matrix(1, 0, 0, 1, -7.105427357601002e-15, 0)"/>
  <path fill="#000" d="M 102.108 234 C 98.112 234 94.911 233.238 92.502 231.712 C 90.108 230.185 88.915 228.092 88.915 225.424 L 88.915 210.042 C 88.915 206.722 89.982 204.218 92.14 202.53 C 94.312 200.843 97.708 200 102.34 200 C 106.37 200 109.62 200.677 112.08 202.03 C 114.555 203.385 115.797 205.323 115.797 207.853 L 115.797 213.616 L 104.907 213.616 L 104.907 208.676 C 104.907 207.712 104.709 207.05 104.315 206.687 C 103.935 206.327 103.277 206.146 102.34 206.146 C 101.37 206.146 100.705 206.356 100.332 206.768 C 99.98 207.185 99.805 207.791 99.805 208.595 L 99.805 225.345 C 99.805 226.228 100.012 226.871 100.431 227.273 C 100.867 227.673 101.499 227.875 102.341 227.875 C 104.051 227.875 104.907 227.031 104.907 225.345 L 104.907 219.32 L 115.897 219.32 L 115.897 225.626 C 115.897 231.208 111.299 234 102.107 234 L 102.108 234 Z" transform="matrix(1, 0, 0, 1, -7.105427357601002e-15, 0)"/>
  <path fill="#000" d="M 126.309 200.621 L 143.089 200.621 C 145.761 200.621 147.836 200.993 149.309 201.726 C 150.772 202.464 151.759 203.502 152.271 204.839 C 152.771 206.163 153.026 207.866 153.026 209.94 C 153.026 211.828 152.616 213.309 151.81 214.379 C 151.02 215.437 149.622 216.176 147.63 216.587 C 149.275 216.803 150.468 217.31 151.217 218.114 C 151.957 218.918 152.337 220.001 152.337 221.368 L 152.204 234 L 141.509 234 L 141.509 220.945 C 141.509 220.012 141.213 219.413 140.62 219.158 C 140.029 218.891 138.941 218.758 137.363 218.758 L 137.363 233.999 L 126.309 233.999 L 126.309 200.621 Z M 140.029 212.972 C 141.559 212.972 142.334 211.964 142.334 209.94 C 142.334 209.055 142.267 208.404 142.137 207.972 C 142.02 207.53 141.79 207.229 141.444 207.068 C 141.114 206.898 140.63 206.808 139.996 206.808 L 137.43 206.808 L 137.43 212.972 L 140.03 212.972 L 140.029 212.972 Z" transform="matrix(1, 0, 0, 1, -7.105427357601002e-15, 0)"/>
  <path fill="#000" d="M 163.979 234.001 L 169.276 200.621 L 187.8 200.621 L 193 233.999 L 182.633 233.999 L 181.877 228.598 L 175.263 228.598 L 174.603 233.999 L 163.98 233.999 L 163.979 234.001 Z M 176.088 223.277 L 181.056 223.277 L 178.619 206.285 L 178.127 206.285 L 176.087 223.277 L 176.088 223.277 Z" transform="matrix(1, 0, 0, 1, -7.105427357601002e-15, 0)"/>
  <path fill="#000" d="M 201.889 234.001 L 201.889 200.621 L 223.769 200.621 L 223.769 207.108 L 212.879 207.108 L 212.879 212.43 L 223.212 212.43 L 223.212 218.837 L 212.88 218.837 L 212.88 233.999 L 201.89 233.999 L 201.889 234.001 Z" transform="matrix(1, 0, 0, 1, -7.105427357601002e-15, 0)"/>
  <path fill="#000" d="M 239.94 234.003 L 239.94 207.03 L 233.425 207.03 L 233.425 200.624 L 257.379 200.624 L 257.379 207.031 L 250.899 207.031 L 250.899 234.003 L 239.94 234.003 Z" transform="matrix(1, 0, 0, 1, -7.105427357601002e-15, 0)"/>
  <path fill="#000" d="M 269.428 234.004 L 269.428 200.624 L 291.311 200.624 L 291.311 207.071 L 280.551 207.071 L 280.551 213.558 L 290.882 213.558 L 290.882 219.864 L 280.55 219.864 L 280.55 227.516 L 292 227.516 L 292 234.002 L 269.429 234.002 L 269.428 234.004 Z" transform="matrix(1, 0, 0, 1, -7.105427357601002e-15, 0)"/>
  <path fill="#000" d="M 303.581 200.624 L 318.651 200.624 C 322.551 200.624 325.481 201.288 327.438 202.614 C 329.385 203.928 330.382 205.881 330.43 208.478 L 330.563 224.103 C 330.605 227.384 329.673 229.853 327.766 231.511 C 325.857 233.174 322.699 234.002 318.289 234.002 L 303.581 234.002 L 303.581 200.624 Z M 316.478 228.097 C 318.47 228.097 319.474 227.505 319.474 226.311 L 319.474 209.1 C 319.474 208.352 319.376 207.79 319.178 207.413 C 318.996 207.025 318.651 206.77 318.124 206.65 C 317.615 206.518 316.841 206.45 315.789 206.45 L 314.571 206.45 L 314.571 228.096 L 316.478 228.096 L 316.478 228.097 Z" transform="matrix(1, 0, 0, 1, -7.105427357601002e-15, 0)"/>
</svg>