<svg xmlns="http://www.w3.org/2000/svg" style="display: none;">

    <symbol id="eye-fill" viewBox="0 0 16 16" fill="currentColor">
        <path d="M10.5 8a2.5 2.5 0 1 1-5 0 2.5 2.5 0 0 1 5 0"/>
        <path d="M0 8s3-5.5 8-5.5S16 8 16 8s-3 5.5-8 5.5S0 8 0 8m8 3.5a3.5 3.5 0 1 0 0-7 3.5 3.5 0 0 0 0 7"/>
    </symbol>

    <symbol id="check-square-fill" viewBox="0 0 16 16" fill="currentColor">
        <path d="M2 0a2 2 0 0 0-2 2v12a2 2 0 0 0 2 2h12a2 2 0 0 0 2-2V2a2 2 0 0 0-2-2zm10.03 4.97a.75.75 0 0 1 .011 1.05l-3.992 4.99a.75.75 0 0 1-1.08.02L4.324 8.384a.75.75 0 1 1 1.06-1.06l2.094 2.093 3.473-4.425a.75.75 0 0 1 1.08-.022z"/>
    </symbol>

    <symbol id="ban-fill" viewBox="0 0 16 16" fill="currentColor">
        <path d="M16 8A8 8 0 1 1 0 8a8 8 0 0 1 16 0M2.71 12.584c.218.252.454.488.706.707l9.875-9.875a7.034 7.034 0 0 0-.707-.707l-9.875 9.875Z"/>
    </symbol>
</svg>