<?xml version="1.0" encoding="UTF-8"?>
<svg xmlns="http://www.w3.org/2000/svg" version="1.1" width="200" height="200" viewBox="0 0 200 200"><rect x="0" y="0" width="200" height="200" fill="#ffffff"/><g transform="scale(4.878)"><g transform="translate(0,0)"><path fill-rule="evenodd" d="M12 0L12 1L13 1L13 0ZM16 0L16 1L15 1L15 2L14 2L14 3L15 3L15 4L14 4L14 5L12 5L12 7L11 7L11 5L10 5L10 3L8 3L8 4L9 4L9 5L8 5L8 7L9 7L9 5L10 5L10 7L11 7L11 8L12 8L12 9L13 9L13 12L14 12L14 13L15 13L15 14L14 14L14 16L13 16L13 15L12 15L12 17L11 17L11 16L10 16L10 15L11 15L11 13L12 13L12 14L13 14L13 13L12 13L12 12L11 12L11 13L10 13L10 11L11 11L11 9L10 9L10 8L6 8L6 9L5 9L5 8L0 8L0 12L1 12L1 13L4 13L4 14L2 14L2 15L1 15L1 16L0 16L0 20L3 20L3 21L4 21L4 22L2 22L2 23L1 23L1 21L0 21L0 23L1 23L1 25L2 25L2 26L5 26L5 25L2 25L2 23L3 23L3 24L4 24L4 22L6 22L6 23L7 23L7 24L6 24L6 25L9 25L9 26L6 26L6 27L9 27L9 28L5 28L5 29L4 29L4 28L2 28L2 27L1 27L1 26L0 26L0 28L1 28L1 29L0 29L0 33L1 33L1 29L2 29L2 30L3 30L3 31L2 31L2 33L3 33L3 31L4 31L4 30L5 30L5 29L8 29L8 30L9 30L9 28L10 28L10 29L12 29L12 30L13 30L13 31L12 31L12 32L13 32L13 33L11 33L11 32L10 32L10 33L8 33L8 35L10 35L10 36L8 36L8 41L10 41L10 40L11 40L11 41L15 41L15 39L14 39L14 40L12 40L12 39L13 39L13 38L17 38L17 37L16 37L16 35L17 35L17 34L15 34L15 33L19 33L19 34L18 34L18 35L19 35L19 34L20 34L20 36L21 36L21 37L20 37L20 38L19 38L19 40L17 40L17 39L16 39L16 41L21 41L21 40L22 40L22 39L23 39L23 40L25 40L25 41L26 41L26 40L27 40L27 41L28 41L28 40L29 40L29 41L31 41L31 40L33 40L33 41L34 41L34 40L33 40L33 39L35 39L35 41L37 41L37 40L38 40L38 41L39 41L39 40L40 40L40 39L39 39L39 40L38 40L38 39L37 39L37 38L41 38L41 37L39 37L39 36L40 36L40 34L41 34L41 31L40 31L40 30L41 30L41 29L40 29L40 30L38 30L38 31L39 31L39 32L38 32L38 33L37 33L37 29L33 29L33 30L35 30L35 31L33 31L33 32L32 32L32 33L30 33L30 32L31 32L31 31L30 31L30 30L29 30L29 31L30 31L30 32L25 32L25 31L28 31L28 30L27 30L27 29L28 29L28 28L29 28L29 29L31 29L31 30L32 30L32 29L31 29L31 27L30 27L30 28L29 28L29 27L28 27L28 26L27 26L27 27L28 27L28 28L27 28L27 29L26 29L26 28L25 28L25 27L26 27L26 26L25 26L25 25L27 25L27 24L28 24L28 25L31 25L31 26L32 26L32 25L34 25L34 26L35 26L35 27L32 27L32 28L35 28L35 27L36 27L36 28L38 28L38 29L39 29L39 28L40 28L40 26L41 26L41 25L40 25L40 26L39 26L39 28L38 28L38 27L36 27L36 26L38 26L38 25L39 25L39 24L38 24L38 22L39 22L39 23L40 23L40 24L41 24L41 23L40 23L40 22L41 22L41 21L40 21L40 20L41 20L41 19L40 19L40 18L41 18L41 17L40 17L40 16L37 16L37 15L40 15L40 14L41 14L41 13L40 13L40 14L38 14L38 13L39 13L39 12L41 12L41 11L40 11L40 10L41 10L41 9L40 9L40 8L39 8L39 9L40 9L40 10L38 10L38 8L37 8L37 9L36 9L36 8L35 8L35 9L34 9L34 8L33 8L33 6L32 6L32 9L30 9L30 8L29 8L29 5L32 5L32 4L33 4L33 3L32 3L32 4L30 4L30 3L31 3L31 1L32 1L32 0L30 0L30 1L29 1L29 0L28 0L28 1L27 1L27 2L26 2L26 3L25 3L25 2L19 2L19 1L20 1L20 0L19 0L19 1L18 1L18 2L19 2L19 3L18 3L18 4L19 4L19 3L25 3L25 4L20 4L20 5L17 5L17 4L16 4L16 3L17 3L17 0ZM21 0L21 1L22 1L22 0ZM23 0L23 1L24 1L24 0ZM25 0L25 1L26 1L26 0ZM8 1L8 2L9 2L9 1ZM10 1L10 2L11 2L11 1ZM28 1L28 2L27 2L27 3L26 3L26 4L25 4L25 5L20 5L20 6L19 6L19 7L18 7L18 6L17 6L17 5L14 5L14 6L13 6L13 7L12 7L12 8L14 8L14 9L15 9L15 10L16 10L16 9L17 9L17 8L19 8L19 7L20 7L20 6L21 6L21 7L22 7L22 6L23 6L23 8L20 8L20 9L24 9L24 10L23 10L23 12L26 12L26 13L24 13L24 14L23 14L23 13L22 13L22 12L21 12L21 13L20 13L20 11L21 11L21 10L19 10L19 9L18 9L18 11L19 11L19 12L17 12L17 11L16 11L16 12L17 12L17 13L16 13L16 14L17 14L17 15L16 15L16 17L15 17L15 16L14 16L14 17L12 17L12 18L11 18L11 17L10 17L10 21L9 21L9 23L8 23L8 24L9 24L9 25L10 25L10 26L9 26L9 27L10 27L10 28L12 28L12 29L13 29L13 30L15 30L15 29L14 29L14 28L16 28L16 27L17 27L17 24L19 24L19 22L20 22L20 23L22 23L22 24L20 24L20 26L19 26L19 25L18 25L18 27L19 27L19 28L17 28L17 29L16 29L16 30L17 30L17 31L16 31L16 32L18 32L18 31L19 31L19 33L20 33L20 34L21 34L21 33L25 33L25 34L23 34L23 35L24 35L24 36L22 36L22 38L20 38L20 39L22 39L22 38L23 38L23 39L24 39L24 38L25 38L25 40L26 40L26 39L27 39L27 38L28 38L28 39L29 39L29 40L31 40L31 39L29 39L29 38L30 38L30 37L32 37L32 38L33 38L33 37L32 37L32 35L31 35L31 36L30 36L30 33L25 33L25 32L21 32L21 31L20 31L20 30L21 30L21 29L24 29L24 30L23 30L23 31L25 31L25 30L26 30L26 29L24 29L24 28L21 28L21 29L20 29L20 26L21 26L21 27L25 27L25 26L23 26L23 25L25 25L25 24L26 24L26 23L27 23L27 22L29 22L29 24L32 24L32 22L31 22L31 21L33 21L33 23L34 23L34 25L35 25L35 26L36 26L36 25L38 25L38 24L36 24L36 23L37 23L37 22L38 22L38 21L37 21L37 20L40 20L40 19L39 19L39 18L40 18L40 17L38 17L38 18L37 18L37 19L36 19L36 21L35 21L35 18L36 18L36 17L37 17L37 16L36 16L36 17L35 17L35 16L34 16L34 15L35 15L35 14L36 14L36 13L38 13L38 12L39 12L39 11L38 11L38 10L36 10L36 11L35 11L35 10L34 10L34 11L35 11L35 12L34 12L34 13L32 13L32 12L31 12L31 13L32 13L32 14L31 14L31 15L30 15L30 13L29 13L29 12L30 12L30 11L28 11L28 13L27 13L27 12L26 12L26 11L27 11L27 10L30 10L30 9L24 9L24 6L25 6L25 8L26 8L26 4L27 4L27 5L29 5L29 4L27 4L27 3L28 3L28 2L29 2L29 3L30 3L30 2L29 2L29 1ZM12 2L12 3L13 3L13 2ZM14 6L14 7L15 7L15 6ZM16 6L16 8L17 8L17 6ZM27 6L27 7L28 7L28 6ZM30 6L30 7L31 7L31 6ZM1 9L1 10L2 10L2 11L1 11L1 12L2 12L2 11L3 11L3 9ZM6 9L6 10L7 10L7 11L5 11L5 10L4 10L4 13L5 13L5 14L4 14L4 15L5 15L5 16L3 16L3 15L2 15L2 16L3 16L3 17L1 17L1 19L2 19L2 18L3 18L3 17L6 17L6 18L4 18L4 21L5 21L5 19L6 19L6 20L9 20L9 19L8 19L8 17L9 17L9 15L6 15L6 14L9 14L9 11L10 11L10 9L8 9L8 10L7 10L7 9ZM32 9L32 10L31 10L31 11L33 11L33 9ZM24 10L24 11L26 11L26 10ZM7 11L7 12L5 12L5 13L7 13L7 12L8 12L8 11ZM14 11L14 12L15 12L15 11ZM36 11L36 12L35 12L35 13L34 13L34 14L32 14L32 17L31 17L31 16L28 16L28 15L29 15L29 13L28 13L28 14L26 14L26 15L27 15L27 16L28 16L28 17L29 17L29 18L27 18L27 17L26 17L26 16L24 16L24 15L25 15L25 14L24 14L24 15L23 15L23 14L22 14L22 13L21 13L21 14L20 14L20 15L21 15L21 16L22 16L22 17L19 17L19 13L17 13L17 14L18 14L18 16L17 16L17 17L16 17L16 18L15 18L15 19L14 19L14 20L17 20L17 17L18 17L18 19L19 19L19 18L20 18L20 20L18 20L18 21L13 21L13 19L11 19L11 20L12 20L12 21L13 21L13 22L11 22L11 23L10 23L10 24L11 24L11 26L10 26L10 27L11 27L11 26L12 26L12 28L14 28L14 27L16 27L16 26L15 26L15 25L14 25L14 24L15 24L15 22L18 22L18 21L20 21L20 22L24 22L24 23L23 23L23 24L22 24L22 25L21 25L21 26L22 26L22 25L23 25L23 24L25 24L25 22L27 22L27 21L31 21L31 20L27 20L27 19L29 19L29 18L30 18L30 17L31 17L31 18L32 18L32 17L34 17L34 18L35 18L35 17L34 17L34 16L33 16L33 15L34 15L34 14L35 14L35 13L36 13L36 12L38 12L38 11ZM6 16L6 17L8 17L8 16ZM23 16L23 17L22 17L22 18L23 18L23 20L20 20L20 21L25 21L25 20L26 20L26 21L27 21L27 20L26 20L26 18L25 18L25 20L24 20L24 18L23 18L23 17L24 17L24 16ZM6 18L6 19L7 19L7 18ZM32 19L32 20L33 20L33 21L34 21L34 22L35 22L35 21L34 21L34 20L33 20L33 19ZM6 21L6 22L8 22L8 21ZM36 21L36 22L37 22L37 21ZM39 21L39 22L40 22L40 21ZM13 22L13 23L12 23L12 25L13 25L13 24L14 24L14 22ZM30 22L30 23L31 23L31 22ZM16 23L16 24L17 24L17 23ZM18 29L18 30L19 30L19 29ZM6 30L6 31L5 31L5 32L4 32L4 33L7 33L7 32L6 32L6 31L7 31L7 30ZM10 30L10 31L11 31L11 30ZM13 31L13 32L14 32L14 33L13 33L13 34L10 34L10 35L13 35L13 37L12 37L12 36L11 36L11 38L13 38L13 37L15 37L15 36L14 36L14 35L15 35L15 34L14 34L14 33L15 33L15 32L14 32L14 31ZM20 32L20 33L21 33L21 32ZM39 32L39 33L38 33L38 34L37 34L37 36L39 36L39 34L40 34L40 32ZM33 33L33 36L36 36L36 33ZM27 34L27 36L28 36L28 37L30 37L30 36L29 36L29 34ZM34 34L34 35L35 35L35 34ZM18 36L18 37L19 37L19 36ZM24 36L24 37L23 37L23 38L24 38L24 37L26 37L26 38L27 38L27 37L26 37L26 36ZM9 37L9 38L10 38L10 37ZM34 37L34 38L35 38L35 39L36 39L36 38L37 38L37 37L36 37L36 38L35 38L35 37ZM0 0L0 7L7 7L7 0ZM1 1L1 6L6 6L6 1ZM2 2L2 5L5 5L5 2ZM34 0L34 7L41 7L41 0ZM35 1L35 6L40 6L40 1ZM36 2L36 5L39 5L39 2ZM0 34L0 41L7 41L7 34ZM1 35L1 40L6 40L6 35ZM2 36L2 39L5 39L5 36Z" fill="#000000"/></g></g></svg>
